<svg xmlns="http://www.w3.org/2000/svg" viewBox="0 0 48 48" width="48" height="48">
  <title>Ehral</title>
  <svg x="3.360" y="9.857" width="41.280" height="28.287" viewBox="0 0 718 492">
    <defs>
      <linearGradient id="ehralFaviconGradient" x1="0%" y1="0%" x2="100%" y2="100%">
        <stop offset="0%" stop-color="#0f6e56"/>
        <stop offset="100%" stop-color="#111111"/>
      </linearGradient>
    </defs>
    <g transform="translate(0,492) scale(0.1,-0.1)" fill="url(#ehralFaviconGradient)" stroke="none">
      <path d="M2418 4913 c6 -2 18 -2 25 0 6 3 1 5 -13 5 -14 0 -19 -2 -12 -5z M2045 4904 c-304 -29 -547 -97 -806 -226 -295 -145 -535 -340 -750 -608 -29 -36 -56 -64 -61 -62 -5 1 -7 -2 -3 -8 7 -11 -35 -71 -45 -65 -4 3 -7 -3 -6 -13 0 -9 -5 -16 -12 -14 -8 1 -11 -2 -7 -8 9 -14 -14 -52 -27 -44 -6 4 -8 3 -4 -4 8 -14 -28 -74 -39 -64 -5 4 -5 2 -2 -4 4 -7 -18 -64 -49 -128 -31 -64 -71 -158 -89 -208 -18 -51 -35 -86 -37 -78 -3 8 -3 5 -1 -7 2 -13 0 -35 -3 -50 -7 -25 -8 -26 -16 -8 -7 17 -8 16 -4 -5 3 -13 -6 -78 -19 -145 -40 -201 -49 -310 -40 -515 5 -102 8 -214 8 -250 0 -36 2 -51 5 -35 3 21 11 -3 28 -85 13 -63 22 -124 20 -135 -2 -11 -1 -13 2 -6 6 22 53 -131 46 -154 -4 -14 -3 -16 4 -7 7 11 11 8 16 -11 3 -14 3 -34 0 -44 -4 -12 -3 -14 3 -5 7 8 16 -4 31 -41 13 -30 21 -60 19 -68 -2 -8 -2 -10 1 -5 3 5 29 -40 59 -99 73 -144 163 -288 246 -391 66 -84 78 -102 55 -88 -7 4 -8 3 -4 -5 4 -6 11 -9 15 -7 11 7 223 -209 214 -218 -4 -4 -1 -4 8 -1 9 3 25 -5 39 -20 21 -23 22 -25 5 -19 -11 4 -17 4 -14 0 4 -4 16 -8 28 -11 30 -6 92 -55 84 -68 -3 -6 -1 -7 5 -3 16 10 105 -56 89 -66 -7 -5 -3 -7 13 -6 13 2 25 -2 25 -9 0 -6 4 -15 9 -20 5 -5 6 -2 1 6 -5 9 -3 12 6 9 8 -3 14 -10 14 -15 0 -6 4 -15 9 -20 5 -5 6 -3 2 5 -9 15 -1 15 25 1 11 -5 17 -14 14 -19 -3 -5 0 -12 6 -16 8 -4 9 -3 5 4 -9 15 -1 15 25 1 11 -5 16 -15 13 -21 -4 -6 -3 -8 4 -4 14 9 83 -25 75 -37 -3 -6 -1 -7 5 -3 14 9 103 -35 95 -47 -4 -6 -1 -7 6 -3 7 5 26 2 42 -5 23 -9 27 -14 17 -21 -9 -6 -6 -7 8 -3 30 8 60 -4 42 -17 -9 -7 -8 -8 6 -4 10 4 50 -4 88 -16 53 -17 65 -24 51 -30 -13 -6 -11 -7 8 -3 31 6 223 -41 194 -48 -11 -2 -6 -3 10 -1 17 2 71 -3 120 -12 50 -8 207 -19 350 -24 183 -6 295 -15 378 -29 66 -12 122 -21 125 -22 4 -1 -4 -5 -18 -10 -21 -7 -19 -8 10 -4 46 7 309 -56 283 -67 -13 -6 -11 -7 7 -3 14 2 95 -11 180 -30 85 -18 193 -39 240 -47 71 -10 80 -14 55 -20 -22 -5 -18 -6 13 -2 60 6 186 -7 152 -17 -14 -4 -18 -8 -10 -9 8 -1 23 -3 33 -5 9 -2 14 1 11 6 -4 7 43 7 133 2 317 -18 583 -4 813 45 69 14 143 26 165 26 22 -1 31 1 20 4 -13 3 19 17 85 38 58 18 114 31 125 28 15 -4 16 -3 6 4 -10 7 -5 13 23 22 19 6 41 8 47 4 7 -4 9 -3 6 3 -9 14 17 24 41 17 14 -5 15 -4 2 5 -12 9 -12 11 -1 11 7 0 63 25 123 55 60 30 114 53 121 51 7 -1 8 -1 4 2 -15 8 31 32 50 26 13 -4 14 -3 5 4 -11 7 -10 10 3 16 9 3 21 3 26 0 5 -3 8 0 7 8 -2 7 5 12 14 12 10 -1 15 2 13 7 -8 11 33 31 47 23 6 -4 8 -3 5 3 -8 12 50 56 63 48 6 -4 9 -1 8 7 -2 7 5 12 14 12 10 -1 16 2 13 6 -7 11 50 51 67 48 7 -2 12 2 11 9 -3 16 97 94 110 86 5 -3 7 -2 4 4 -8 12 44 63 67 67 9 1 15 5 14 9 -5 11 135 146 145 140 6 -3 7 -1 3 6 -4 6 17 39 52 79 81 91 175 221 230 315 33 57 48 74 55 65 6 -9 7 -8 3 4 -7 22 3 50 14 43 5 -3 12 0 16 6 4 8 3 9 -4 5 -7 -4 -12 -5 -12 -3 0 18 118 246 125 240 4 -5 5 -2 1 4 -4 7 7 53 23 102 41 118 40 149 -4 101 -10 -11 -23 -17 -29 -13 -6 3 -8 3 -4 -2 11 -11 -12 -36 -25 -28 -5 3 -7 1 -4 -4 9 -14 -131 -146 -145 -137 -6 4 -8 3 -5 -3 4 -6 -3 -19 -15 -29 -12 -11 -18 -13 -13 -5 10 18 -36 -15 -85 -59 -19 -18 -26 -26 -16 -19 47 33 1 -14 -57 -58 -34 -26 -56 -39 -48 -30 12 15 12 17 0 12 -8 -3 -19 -15 -24 -28 -6 -12 -18 -22 -27 -22 -9 0 -20 -4 -25 -9 -5 -5 -2 -6 7 -1 13 8 13 7 1 -9 -8 -9 -20 -15 -28 -12 -8 3 -12 2 -9 -3 8 -12 -21 -34 -34 -26 -6 4 -9 1 -8 -7 2 -7 -5 -13 -14 -13 -9 0 -20 -4 -25 -9 -5 -5 -2 -6 6 -1 10 6 12 4 7 -4 -5 -7 -15 -10 -23 -7 -8 3 -12 2 -9 -3 3 -5 -5 -16 -19 -25 -27 -18 -49 -22 -25 -5 13 9 13 10 0 6 -8 -2 -15 -10 -15 -18 0 -8 -8 -13 -17 -13 -10 1 -16 -3 -15 -8 1 -6 -4 -13 -12 -16 -9 -3 -11 0 -6 8 6 9 4 11 -4 6 -7 -5 -10 -11 -7 -14 10 -9 -33 -34 -46 -26 -7 5 -8 3 -3 -6 6 -10 4 -12 -8 -7 -9 3 -19 1 -23 -5 -5 -7 -2 -8 7 -4 8 4 5 0 -6 -8 -11 -9 -26 -14 -34 -11 -9 3 -12 3 -8 -1 10 -10 -31 -36 -45 -28 -6 4 -8 3 -5 -3 8 -13 -20 -26 -35 -16 -7 4 -8 1 -3 -7 6 -10 4 -12 -9 -7 -11 5 -15 3 -10 -5 5 -8 2 -9 -10 -5 -11 5 -15 3 -10 -5 5 -8 2 -9 -10 -5 -10 4 -15 3 -11 -3 9 -14 -119 -71 -142 -64 -13 4 -15 3 -5 -4 23 -16 -255 -127 -292 -116 -14 3 -17 2 -8 -4 29 -20 -300 -99 -507 -122 -111 -13 -393 -8 -486 7 l-40 7 30 7 c21 6 15 6 -20 3 -82 -7 -336 66 -433 126 -28 17 -33 25 -30 53 4 42 59 73 170 94 105 20 187 14 428 -29 158 -28 208 -33 345 -33 138 0 170 3 232 23 39 12 80 19 90 16 12 -4 14 -3 5 3 -9 7 -6 12 13 21 32 15 38 15 29 0 -5 -7 -3 -8 5 -4 7 5 10 11 7 14 -3 3 18 21 47 39 28 19 70 52 93 74 22 22 43 37 46 34 3 -3 11 1 18 10 7 8 10 15 6 15 -4 0 3 18 14 40 34 67 31 70 -57 66 -52 -3 -63 -2 -33 2 28 5 -14 7 -110 7 l-155 1 110 -13 110 -12 -115 5 c-122 5 -293 31 -285 44 2 4 -8 5 -23 3 -23 -3 -24 -2 -7 6 11 5 15 10 8 10 -6 1 -19 4 -29 8 -12 4 -15 3 -10 -5 12 -19 -11 -14 -139 28 -66 22 -106 37 -90 35 25 -4 27 -3 12 6 -10 6 -25 8 -33 5 -20 -8 -65 4 -59 14 3 5 -3 6 -12 4 -10 -2 -54 7 -98 20 -44 14 -71 25 -60 26 17 2 16 3 -5 10 -34 11 -60 11 -35 0 30 -13 5 -12 -78 4 -41 8 -106 18 -145 21 -78 8 -349 12 -330 6 18 -6 -127 -33 -182 -34 -25 0 -36 -3 -26 -5 13 -3 -4 -12 -48 -28 -37 -13 -74 -21 -84 -18 -13 5 -14 4 -3 -4 11 -8 10 -11 -6 -16 -11 -4 -29 -4 -39 0 -13 4 -15 3 -6 -3 9 -7 6 -13 -13 -21 -15 -7 -31 -9 -37 -6 -7 4 -8 2 -4 -4 8 -14 -30 -36 -46 -26 -7 5 -8 3 -3 -6 6 -10 4 -12 -9 -7 -10 4 -15 3 -11 -3 7 -12 -32 -33 -47 -24 -6 4 -8 3 -5 -3 4 -6 -9 -20 -29 -32 -40 -24 -48 -26 -38 -9 4 7 3 8 -5 4 -6 -4 -9 -11 -6 -16 7 -12 -62 -53 -76 -44 -8 4 -9 3 -5 -4 8 -14 -70 -56 -86 -46 -6 4 -8 3 -5 -3 8 -13 -17 -24 -37 -17 -8 3 -17 1 -21 -5 -4 -7 1 -9 12 -6 10 3 -9 -8 -42 -24 -85 -42 -204 -73 -257 -67 -33 4 -36 4 -13 -3 26 -7 21 -9 -40 -17 -102 -13 -279 -8 -381 11 -159 30 -378 109 -352 128 9 6 8 7 -5 3 -24 -8 -100 31 -91 46 4 7 3 8 -4 4 -15 -9 -55 18 -44 29 4 5 1 5 -5 1 -15 -8 -58 19 -58 37 0 6 -8 11 -17 9 -9 -1 -20 3 -24 9 -5 8 -3 9 7 4 8 -5 10 -4 6 0 -4 5 -14 10 -22 11 -33 5 -252 225 -255 256 -1 4 -15 21 -31 39 -16 18 -28 38 -25 46 3 8 2 12 -3 8 -13 -7 -74 102 -65 116 4 7 3 9 -3 6 -14 -9 -24 17 -17 41 4 12 3 14 -4 4 -7 -10 -12 -6 -21 17 -7 16 -10 35 -5 42 4 7 3 10 -4 5 -13 -8 -24 25 -16 50 4 15 4 16 -4 5 -14 -20 -55 113 -47 151 4 15 2 35 -4 45 -9 14 -10 11 -6 -17 3 -25 0 -20 -9 15 -8 28 -15 62 -15 78 l-1 27 1123 0 c1108 0 1122 0 1155 20 18 11 38 17 44 14 6 -4 8 -2 4 4 -3 6 2 15 11 21 10 6 15 11 10 11 -4 0 -1 13 8 30 12 22 15 65 15 190 0 172 -5 193 -54 239 -14 13 -24 27 -22 30 2 3 -6 8 -17 10 -12 2 -527 5 -1144 7 l-1121 4 23 88 c30 112 74 224 86 216 5 -3 6 2 3 10 -8 20 65 148 78 139 7 -3 8 -1 4 5 -9 15 18 55 29 44 5 -4 5 -1 1 6 -9 16 52 95 66 86 7 -5 8 -2 3 6 -5 8 21 41 76 97 184 185 400 310 641 368 428 104 824 15 1168 -262 96 -77 214 -208 204 -225 -4 -7 -3 -8 4 -4 10 6 52 -49 112 -148 19 -32 21 -40 9 -48 -11 -8 -11 -9 3 -5 18 6 32 -18 21 -35 -3 -6 -2 -8 4 -5 5 4 22 -21 36 -53 23 -54 28 -60 56 -60 16 0 33 5 36 10 3 6 11 10 16 10 6 0 7 -5 3 -12 -4 -7 -3 -8 5 -4 6 4 9 11 7 14 -7 12 183 124 196 116 6 -4 8 -3 5 3 -4 6 75 59 183 124 114 68 190 120 190 129 0 8 -9 35 -20 59 -23 50 -24 55 -8 45 7 -4 8 -3 4 5 -4 6 -11 9 -16 6 -11 -7 -22 24 -13 37 3 6 1 8 -5 5 -13 -9 -75 100 -66 115 4 6 3 8 -3 5 -6 -4 -27 19 -48 51 -97 146 -259 325 -405 447 -271 226 -639 395 -990 456 -110 19 -417 33 -515 23z m4375 -3167 c0 -2 -12 -14 -27 -28 l-28 -24 24 28 c23 25 31 32 31 24z M1788 4883 c7 -3 16 -2 19 1 4 3 -2 6 -13 5 -11 0 -14 -3 -6 -6z M2618 4883 c7 -3 16 -2 19 1 4 3 -2 6 -13 5 -11 0 -14 -3 -6 -6z M4821 3341 c-8 -5 5 -7 35 -4 27 3 51 7 53 9 9 8 -75 3 -88 -5z M4813 3319 c-23 -4 -55 -15 -73 -24 -17 -9 -35 -13 -41 -10 -5 4 -8 1 -7 -6 2 -6 -3 -14 -11 -17 -9 -3 -11 0 -6 9 5 8 4 11 -1 6 -5 -5 -9 -14 -9 -20 -1 -7 -7 -10 -15 -9 -8 2 -12 0 -8 -4 11 -10 -12 -35 -26 -27 -6 3 -8 3 -4 -2 11 -12 -21 -67 -34 -59 -6 4 -8 3 -5 -4 4 -5 0 -38 -9 -72 -18 -71 -13 -131 17 -199 10 -24 16 -47 13 -52 -3 -5 -1 -8 4 -7 10 3 76 -62 77 -76 0 -5 9 -11 20 -12 11 -1 45 -12 75 -23 30 -11 75 -20 100 -20 25 0 70 9 100 20 30 11 62 21 72 23 21 3 49 26 43 36 -7 11 30 41 40 33 4 -5 6 -3 2 2 -7 13 37 87 47 78 4 -4 5 -1 2 7 -3 8 -2 38 3 65 5 28 9 40 10 27 2 -38 21 -14 21 26 0 48 -19 81 -21 37 -1 -22 -4 -16 -10 19 -4 28 -5 54 -2 59 3 6 1 7 -4 4 -13 -8 -26 20 -16 36 3 7 3 9 -2 5 -7 -7 -59 57 -60 74 0 12 -16 23 -33 23 -9 0 -16 6 -14 13 1 8 -2 11 -7 8 -5 -3 -28 3 -52 13 -54 23 -121 31 -176 20z m267 -553 c0 -2 -8 -10 -17 -17 -16 -13 -17 -12 -4 4 13 16 21 21 21 13z M927 3241 c-4 -17 -3 -21 5 -13 5 5 8 16 6 23 -3 8 -7 3 -11 -10z M56 3215 c-3 -9 -6 -24 -5 -33 0 -9 5 -4 10 12 9 32 6 48 -5 21z M905 3169 c-4 -6 -5 -12 -2 -15 2 -3 7 2 10 11 7 17 1 20 -8 4z M32 3080 c0 -14 2 -19 5 -12 2 6 2 18 0 25 -3 6 -5 1 -5 -13z M880 3070 c0 -11 4 -20 9 -20 5 0 7 9 4 20 -3 11 -7 20 -9 20 -2 0 -4 -9 -4 -20z M4541 3064 c0 -11 3 -14 6 -6 3 7 2 16 -1 19 -3 4 -6 -2 -5 -13z M3808 2973 c6 -2 18 -2 25 0 6 3 1 5 -13 5 -14 0 -19 -2 -12 -5z M5818 2973 c7 -3 16 -2 19 1 4 3 -2 6 -13 5 -11 0 -14 -3 -6 -6z M5928 2973 c7 -3 16 -2 19 1 4 3 -2 6 -13 5 -11 0 -14 -3 -6 -6z M5831 2959 c-51 -10 -122 -49 -149 -84 -11 -13 -21 -23 -23 -22 -2 1 -3 1 -2 -1 0 -2 -8 -24 -19 -48 -16 -37 -19 -62 -16 -134 1 -48 6 -86 10 -84 7 5 43 -56 40 -67 0 -4 11 -17 26 -30 l27 -24 -25 30 -25 30 30 -25 c45 -37 52 -44 35 -35 -13 8 -13 6 -1 -8 17 -21 103 -47 150 -46 28 1 22 3 -22 10 -32 5 -65 13 -75 19 -13 8 -10 8 13 3 38 -10 100 -10 143 -1 23 6 31 4 26 -3 -4 -7 -2 -10 5 -8 7 3 13 9 13 14 1 14 36 37 47 31 5 -3 14 1 21 9 7 8 9 15 5 15 -4 0 6 15 23 34 16 19 38 58 47 86 61 185 -109 375 -304 339z M6 2923 c-8 -50 -6 -356 2 -413 4 -25 7 66 7 202 0 137 -1 248 -1 248 -1 0 -4 -17 -8 -37z M3759 2947 c-76 -21 -135 -71 -168 -140 -10 -22 -20 -34 -22 -28 -12 34 -6 -125 6 -164 8 -27 11 -53 8 -58 -3 -6 -1 -7 5 -3 7 4 12 2 12 -3 0 -6 0 -14 0 -18 1 -13 63 -73 70 -68 4 3 26 -5 50 -16 35 -17 55 -20 119 -15 99 7 118 9 127 19 5 4 0 5 -11 2 -19 -6 -19 -6 0 6 38 23 87 74 107 113 17 34 42 183 32 195 -2 2 -4 -2 -4 -10 0 -8 -11 9 -24 36 -13 28 -40 65 -59 84 -20 19 -33 39 -30 44 3 6 1 7 -5 4 -12 -8 -44 2 -38 12 2 3 -6 6 -17 7 -12 0 -42 3 -67 7 -26 4 -64 1 -91 -6z m-113 -449 l29 -33 -32 29 c-31 28 -38 36 -30 36 2 0 16 -15 33 -32z M4541 2944 c0 -11 3 -14 6 -6 3 7 2 16 -1 19 -3 4 -6 -2 -5 -13z M3231 2756 c-1 -82 2 -146 6 -143 9 10 12 249 2 272 -4 12 -8 -42 -8 -129z M5596 2716 c-4 -18 -3 -43 2 -56 6 -17 9 -9 10 34 2 63 -3 72 -12 22z M4788 2683 c7 -3 16 -2 19 1 4 3 -2 6 -13 5 -11 0 -14 -3 -6 -6z M4938 2683 c7 -3 16 -2 19 1 4 3 -2 6 -13 5 -11 0 -14 -3 -6 -6z M4863 2673 c9 -2 23 -2 30 0 6 3 -1 5 -18 5 -16 0 -22 -2 -12 -5z M4627 2609 c-38 -10 -86 -28 -108 -40 -22 -11 -45 -17 -51 -13 -7 4 -8 3 -4 -4 4 -6 -5 -19 -20 -28 -14 -10 -41 -37 -59 -61 -20 -26 -35 -38 -38 -31 -2 7 -5 2 -5 -12 0 -14 -8 -45 -18 -70 -15 -38 -19 -83 -22 -283 -2 -131 -1 -249 2 -261 4 -18 19 -27 68 -41 35 -9 101 -30 148 -46 244 -80 385 -104 584 -97 133 5 295 34 319 58 5 4 8 148 7 319 -1 288 -2 316 -21 367 -28 74 -89 148 -152 184 -62 36 -195 80 -241 80 -31 0 -38 -6 -77 -67 l-42 -68 38 -267 38 -267 -33 -43 c-19 -24 -42 -53 -53 -65 l-20 -22 -19 24 c-11 14 -16 30 -12 36 4 7 3 9 -4 5 -6 -3 -23 9 -37 29 l-27 35 37 267 37 268 -39 65 c-36 58 -44 65 -74 67 -19 1 -65 -7 -102 -18z M4811 2560 c12 -22 24 -38 26 -36 4 4 -37 76 -44 76 -2 0 6 -18 18 -40z M4850 2490 c0 -6 9 -19 20 -30 12 -12 20 -15 20 -7 0 7 -9 20 -20 30 -11 9 -20 12 -20 7z M860 2434 c0 -10 4 -12 13 -7 6 4 507 10 1112 13 l1100 5 -1112 3 c-1002 2 -1113 0 -1113 -14z M3773 2413 c9 -2 23 -2 30 0 6 3 -1 5 -18 5 -16 0 -22 -2 -12 -5z M3853 2413 c9 -2 23 -2 30 0 6 3 -1 5 -18 5 -16 0 -22 -2 -12 -5z M3760 2374 c-74 -14 -175 -47 -208 -68 -43 -27 -94 -81 -119 -129 -24 -43 -33 -347 -11 -347 7 0 49 7 92 15 159 31 433 22 644 -21 l32 -6 0 183 c0 212 -9 243 -84 297 -68 49 -261 91 -346 76z M5717 2356 c-84 -28 -115 -51 -144 -106 -23 -43 -23 -45 -23 -465 0 -232 3 -424 6 -428 22 -22 462 246 674 410 l75 59 3 136 c2 117 0 143 -18 190 -38 102 -124 172 -259 212 -82 24 -229 20 -314 -8z M4832 2334 c-1 -12 -4 -37 -7 -55 -5 -31 -5 -32 5 -9 6 13 9 38 7 55 -2 18 -4 21 -5 9z M4292 2310 c0 -14 2 -19 5 -12 2 6 2 18 0 25 -3 6 -5 1 -5 -13z M52 2240 c0 -14 2 -19 5 -12 2 6 2 18 0 25 -3 6 -5 1 -5 -13z M4806 2145 c-3 -9 -6 -26 -5 -38 1 -14 4 -9 9 13 9 37 7 52 -4 25z M4792 2055 c0 -16 2 -22 5 -12 2 9 2 23 0 30 -3 6 -5 -1 -5 -18z M4782 1980 c0 -19 2 -27 5 -17 2 9 2 25 0 35 -3 9 -5 1 -5 -18z M6323 1915 c0 -44 2 -61 4 -37 2 23 2 59 0 80 -2 20 -4 1 -4 -43z M4202 1960 c0 -14 2 -19 5 -12 2 6 2 18 0 25 -3 6 -5 1 -5 -13z M6717 1931 c-4 -17 -3 -21 5 -13 5 5 8 16 6 23 -3 8 -7 3 -11 -10z M6580 1897 c-14 -13 -32 -32 -40 -42 -8 -11 5 -2 28 20 38 35 47 46 40 45 -2 0 -14 -11 -28 -23z M3391 1894 c0 -11 3 -14 6 -6 3 7 2 16 -1 19 -3 4 -6 -2 -5 -13z M5533 1865 c0 -27 2 -38 4 -22 2 15 2 37 0 50 -2 12 -4 0 -4 -28z M4855 1870 c-3 -6 1 -7 9 -4 18 7 21 14 7 14 -6 0 -13 -4 -16 -10z M3643 1743 c15 -2 37 -2 50 0 12 2 0 4 -28 4 -27 0 -38 -2 -22 -4z M3828 1743 c18 -2 45 -2 60 0 15 2 0 4 -33 4 -33 0 -45 -2 -27 -4z M4038 1723 c6 -2 18 -2 25 0 6 3 1 5 -13 5 -14 0 -19 -2 -12 -5z M1255 1640 c10 -11 20 -20 23 -20 3 0 -3 9 -13 20 -10 11 -20 20 -23 20 -3 0 3 -9 13 -20z M4508 1593 c7 -3 16 -2 19 1 4 3 -2 6 -13 5 -11 0 -14 -3 -6 -6z M4768 1523 c6 -2 18 -2 25 0 6 3 1 5 -13 5 -14 0 -19 -2 -12 -5z M5531 1464 c0 -11 3 -14 6 -6 3 7 2 16 -1 19 -3 4 -6 -2 -5 -13z M2815 1400 c-3 -6 1 -7 9 -4 18 7 21 14 7 14 -6 0 -13 -4 -16 -10z M1680 1356 c0 -2 7 -7 16 -10 8 -3 12 -2 9 4 -6 10 -25 14 -25 6z M1735 1330 c3 -5 11 -10 16 -10 6 0 7 5 4 10 -3 6 -11 10 -16 10 -6 0 -7 -4 -4 -10z M2670 1330 c-8 -5 -10 -10 -5 -10 6 0 17 5 25 10 8 5 11 10 5 10 -5 0 -17 -5 -25 -10z M1895 1280 c27 -12 43 -12 25 0 -8 5 -22 9 -30 9 -10 0 -8 -3 5 -9z M2515 1280 c-13 -6 -15 -9 -5 -9 8 0 22 4 30 9 18 12 2 12 -25 0z M2013 1253 c9 -2 23 -2 30 0 6 3 -1 5 -18 5 -16 0 -22 -2 -12 -5z M3848 1183 c7 -3 16 -2 19 1 4 3 -2 6 -13 5 -11 0 -14 -3 -6 -6z M4168 1183 c6 -2 18 -2 25 0 6 3 1 5 -13 5 -14 0 -19 -2 -12 -5z M4298 1163 c7 -3 16 -2 19 1 4 3 -2 6 -13 5 -11 0 -14 -3 -6 -6z M4463 1133 c9 -2 23 -2 30 0 6 3 -1 5 -18 5 -16 0 -22 -2 -12 -5z M4818 1133 c7 -3 16 -2 19 1 4 3 -2 6 -13 5 -11 0 -14 -3 -6 -6z M3720 1090 c0 -5 9 -14 20 -20 19 -10 20 -10 8 9 -13 22 -28 28 -28 11z M5260 1060 c-8 -5 -10 -10 -5 -10 6 0 17 5 25 10 8 5 11 10 5 10 -5 0 -17 -5 -25 -10z M3820 1036 c0 -2 7 -7 16 -10 8 -3 12 -2 9 4 -6 10 -25 14 -25 6z M3880 1010 c8 -5 20 -10 25 -10 6 0 3 5 -5 10 -8 5 -19 10 -25 10 -5 0 -3 -5 5 -10z M5110 1010 c-8 -5 -10 -10 -5 -10 6 0 17 5 25 10 8 5 11 10 5 10 -5 0 -17 -5 -25 -10z M4048 963 c7 -3 16 -2 19 1 4 3 -2 6 -13 5 -11 0 -14 -3 -6 -6z M4928 963 c7 -3 16 -2 19 1 4 3 -2 6 -13 5 -11 0 -14 -3 -6 -6z M4778 933 c7 -3 16 -2 19 1 4 3 -2 6 -13 5 -11 0 -14 -3 -6 -6z M4412 913 c37 -2 100 -2 140 0 40 1 10 3 -67 3 -77 0 -110 -1 -73 -3z M1560 530 c8 -5 20 -10 25 -10 6 0 3 5 -5 10 -8 5 -19 10 -25 10 -5 0 -3 -5 5 -10z M1720 480 c8 -5 22 -9 30 -9 10 0 8 3 -5 9 -27 12 -43 12 -25 0z M1950 430 c14 -4 36 -8 50 -8 22 0 22 1 -5 8 -16 4 -39 8 -50 8 -16 0 -15 -2 5 -8z M2253 403 c48 -2 125 -2 170 0 45 1 6 3 -88 3 -93 0 -130 -2 -82 -3z M2665 380 c19 -8 73 -14 64 -6 -2 2 -22 6 -44 9 -28 5 -34 4 -20 -3z M2890 336 c0 -2 9 -6 20 -9 11 -3 18 -1 14 4 -5 9 -34 13 -34 5z M3008 303 c7 -3 16 -2 19 1 4 3 -2 6 -13 5 -11 0 -14 -3 -6 -6z M3190 260 c8 -5 22 -9 30 -9 10 0 8 3 -5 9 -27 12 -43 12 -25 0z M3308 233 c7 -3 16 -2 19 1 4 3 -2 6 -13 5 -11 0 -14 -3 -6 -6z M3415 210 c11 -5 27 -9 35 -9 9 0 8 4 -5 9 -11 5 -27 9 -35 9 -9 0 -8 -4 5 -9z M4798 203 c7 -3 16 -2 19 1 4 3 -2 6 -13 5 -11 0 -14 -3 -6 -6z M4688 183 c7 -3 16 -2 19 1 4 3 -2 6 -13 5 -11 0 -14 -3 -6 -6z M4545 160 c-4 -7 3 -8 22 -4 38 9 42 14 10 14 -14 0 -29 -5 -32 -10z M1490 15 c0 -13 29 -15 211 -15 164 0 210 3 207 12 -4 10 -57 14 -211 16 -180 2 -207 0 -207 -13z M6760 15 c0 -13 30 -15 210 -15 180 0 210 2 210 15 0 13 -30 15 -210 15 -180 0 -210 -2 -210 -15z"/>
    </g>
  </svg>
</svg>
